<svg xmlns="http://www.w3.org/2000/svg" xmlns:xlink="http://www.w3.org/1999/xlink" width="900" height="900" viewBox="0 0 900 900">
  <defs>
    <style>
      .cls-1 {
        fill: #fff;
        filter: url(#filter);
      }

      .cls-2, .cls-3 {
        fill-rule: evenodd;
      }

      .cls-3 {
        fill: none;
        stroke: #fff;
        stroke-width: 4px;
      }
    </style>
    <filter id="filter" x="4" y="9" width="893" height="893" filterUnits="userSpaceOnUse">
      <feOffset result="offset" dy="5" in="SourceAlpha"/>
      <feGaussianBlur result="blur" stdDeviation="2.646"/>
      <feFlood result="flood" flood-opacity="0.5"/>
      <feComposite result="composite" operator="in" in2="blur"/>
      <feBlend result="blend" in="SourceGraphic"/>
    </filter>
  </defs>
  <g id="Artboard_1" data-name="Artboard 1">
    <circle class="cls-1" cx="450" cy="450" r="440"/>
    <path id="P" class="cls-2" d="M763.843,328.814q0-64.007-28.124-113.468-28.14-49.46-84.374-77.584-56.256-28.118-137.713-28.125H245V790.444H410.832V546.052h102.8q83.4,0,139.653-30.065,56.234-30.048,83.4-79.039,27.14-48.96,27.154-108.134h0ZM501.025,414.157H410.832V243.471h90.193q47.505,0,70.8,22.305Q595.1,288.1,595.1,328.814q0,40.732-23.275,63.038t-70.8,22.305h0Z"/>
    <path class="cls-3" d="M215,716H446v86H215V716Z"/>
    <path class="cls-3" d="M199,548H430v86H199V548Z"/>
    <path id="Rectangle_1_copy" data-name="Rectangle 1 copy" class="cls-3" d="M199,382H851v86H199V382Z"/>
    <path id="Rectangle_1_copy_2" data-name="Rectangle 1 copy 2" class="cls-3" d="M199,218H851v86H199V218Z"/>
    <path id="Rectangle_1_copy_3" data-name="Rectangle 1 copy 3" class="cls-3" d="M198,61H850v86H198V61Z"/>
    <path class="cls-3" d="M211,74H326V823H211V74Z"/>
    <path id="Rectangle_1_copy_4" data-name="Rectangle 1 copy 4" class="cls-3" d="M410,76h79V825H410V76Z"/>
    <path id="Rectangle_1_copy_5" data-name="Rectangle 1 copy 5" class="cls-3" d="M571,74h79V823H571V74Z"/>
    <path id="Rectangle_1_copy_6" data-name="Rectangle 1 copy 6" class="cls-3" d="M730,76h79V825H730V76Z"/>
  </g>
</svg>
